<svg width="17" height="17" viewBox="0 0 17 17" fill="none" xmlns="http://www.w3.org/2000/svg">
<path d="M8.33334 0C6.68516 0 5.074 0.488742 3.70359 1.40442C2.33318 2.3201 1.26507 3.62159 0.634341 5.1443C0.0036107 6.66702 -0.161417 8.34258 0.160126 9.95909C0.48167 11.5756 1.27534 13.0605 2.44078 14.2259C3.60622 15.3913 5.09108 16.185 6.70759 16.5065C8.32409 16.8281 9.99965 16.6631 11.5224 16.0323C13.0451 15.4016 14.3466 14.3335 15.2623 12.9631C16.1779 11.5927 16.6667 9.98151 16.6667 8.33333C16.6667 7.23898 16.4511 6.15535 16.0323 5.1443C15.6135 4.13326 14.9997 3.2146 14.2259 2.44078C13.4521 1.66696 12.5334 1.05313 11.5224 0.634337C10.5113 0.215548 9.42769 0 8.33334 0ZM8.33334 13.3333C8.16852 13.3333 8.0074 13.2845 7.87036 13.1929C7.73332 13.1013 7.62651 12.9712 7.56344 12.8189C7.50037 12.6666 7.48386 12.4991 7.51602 12.3374C7.54817 12.1758 7.62754 12.0273 7.74408 11.9107C7.86063 11.7942 8.00911 11.7148 8.17076 11.6827C8.33241 11.6505 8.49997 11.667 8.65224 11.7301C8.80451 11.7932 8.93466 11.9 9.02623 12.037C9.1178 12.1741 9.16667 12.3352 9.16667 12.5C9.16667 12.721 9.07887 12.933 8.92259 13.0893C8.76631 13.2455 8.55435 13.3333 8.33334 13.3333ZM9.16667 9.03333V10C9.16667 10.221 9.07887 10.433 8.92259 10.5893C8.76631 10.7455 8.55435 10.8333 8.33334 10.8333C8.11232 10.8333 7.90036 10.7455 7.74408 10.5893C7.5878 10.433 7.5 10.221 7.5 10V8.33333C7.5 8.11232 7.5878 7.90036 7.74408 7.74408C7.90036 7.5878 8.11232 7.5 8.33334 7.5C8.58057 7.5 8.82224 7.42669 9.0278 7.28934C9.23336 7.15199 9.39358 6.95676 9.48819 6.72835C9.5828 6.49995 9.60755 6.24861 9.55932 6.00614C9.51109 5.76366 9.39204 5.54093 9.21722 5.36612C9.04241 5.1913 8.81968 5.07225 8.5772 5.02402C8.33473 4.97579 8.08339 5.00054 7.85498 5.09515C7.62658 5.18976 7.43135 5.34998 7.294 5.55554C7.15665 5.7611 7.08334 6.00277 7.08334 6.25C7.08334 6.47101 6.99554 6.68298 6.83926 6.83926C6.68298 6.99554 6.47102 7.08333 6.25 7.08333C6.02899 7.08333 5.81703 6.99554 5.66075 6.83926C5.50447 6.68298 5.41667 6.47101 5.41667 6.25C5.41449 5.70859 5.56305 5.17725 5.84573 4.71548C6.1284 4.25371 6.53402 3.87973 7.01718 3.63542C7.50035 3.39111 8.04198 3.2861 8.58144 3.33216C9.12089 3.37822 9.63688 3.57352 10.0716 3.89621C10.5064 4.21889 10.8427 4.65622 11.043 5.15922C11.2433 5.66223 11.2997 6.21106 11.2058 6.74427C11.1118 7.27748 10.8713 7.77402 10.5112 8.1783C10.1511 8.58258 9.68552 8.87864 9.16667 9.03333Z" fill="#EB8181"/>
</svg>
