<svg width="15" height="20" viewBox="0 0 15 20" fill="none" xmlns="http://www.w3.org/2000/svg">
<path d="M14 1.00013V1.0008V19.0029L14 19.003L13.9999 19.003L13.9999 19.003L13.9998 19.003L1.00134 10.0041C1.00129 10.004 1.00124 10.004 1.00118 10.004C1.00084 10.0037 1.00056 10.0033 1.00036 10.003C1.00012 10.0025 1 10.002 1 10.0015C1 10.001 1.00012 10.0005 1.00036 10.0001C1.00056 9.99967 1.00084 9.99933 1.00118 9.99906C1.00124 9.99902 1.00129 9.99898 1.00134 9.99894L13.9998 1.00002L13.9999 1L13.9999 1.00002L14 1.00007L14 1.00013Z" fill="#EB8181" stroke="#EB8181" stroke-width="2"/>
</svg>
