<svg width="24" height="24" viewBox="0 0 24 24" fill="none" xmlns="http://www.w3.org/2000/svg">
<path d="M20.1317 20.1317C17.9751 22.2884 15.05 23.5 12 23.5C8.95001 23.5 6.02494 22.2884 3.86827 20.1317C1.7116 17.9751 0.5 15.05 0.5 12C0.5 8.95001 1.7116 6.02494 3.86827 3.86827C6.02494 1.7116 8.95001 0.5 12 0.5C15.05 0.5 17.9751 1.7116 20.1317 3.86827C22.2884 6.02494 23.5 8.95001 23.5 12C23.5 15.05 22.2884 17.9751 20.1317 20.1317ZM18.75 7H5.25C4.91848 7 4.60054 7.1317 4.36612 7.36612C4.1317 7.60054 4 7.91848 4 8.25C4 8.58152 4.1317 8.89946 4.36612 9.13388C4.60054 9.3683 4.91848 9.5 5.25 9.5H18.75C19.0815 9.5 19.3995 9.3683 19.6339 9.13388C19.8683 8.89946 20 8.58152 20 8.25C20 7.91848 19.8683 7.60054 19.6339 7.36612C19.3995 7.1317 19.0815 7 18.75 7ZM7.36612 11.8661C7.1317 12.1005 7 12.4185 7 12.75C7 13.0815 7.1317 13.3995 7.36612 13.6339C7.60054 13.8683 7.91848 14 8.25 14H15.75C16.0815 14 16.3995 13.8683 16.6339 13.6339C16.8683 13.3995 17 13.0815 17 12.75C17 12.4185 16.8683 12.1005 16.6339 11.8661C16.3995 11.6317 16.0815 11.5 15.75 11.5H8.25C7.91848 11.5 7.60054 11.6317 7.36612 11.8661ZM10.3661 16.3661C10.1317 16.6005 10 16.9185 10 17.25C10 17.5815 10.1317 17.8995 10.3661 18.1339C10.6005 18.3683 10.9185 18.5 11.25 18.5H12.75C13.0815 18.5 13.3995 18.3683 13.6339 18.1339C13.8683 17.8995 14 17.5815 14 17.25C14 16.9185 13.8683 16.6005 13.6339 16.3661C13.3995 16.1317 13.0815 16 12.75 16H11.25C10.9185 16 10.6005 16.1317 10.3661 16.3661Z" fill="#EB8181" stroke="#EB8181"/>
</svg>
